<?xml version="1.0" encoding="UTF-8" standalone="no"?>

<svg
   xmlns:dc="http://purl.org/dc/elements/1.1/"
   xmlns:cc="http://creativecommons.org/ns#"
   xmlns:rdf="http://www.w3.org/1999/02/22-rdf-syntax-ns#"
   xmlns:svg="http://www.w3.org/2000/svg"
   xmlns="http://www.w3.org/2000/svg"
   xmlns:sodipodi="http://sodipodi.sourceforge.net/DTD/sodipodi-0.dtd"
   xmlns:inkscape="http://www.inkscape.org/namespaces/inkscape"
   width="744.09448819"
   height="1052.3622047"
   id="svg3717"
   version="1.1"
   inkscape:version="0.48.4 r9939"
   sodipodi:docname="рисунок.svg">
  <defs
     id="defs3719">
  <style type="text/css">
  .city {
    stroke: #BDBDAE;
    stroke-width: 2px;
    fill: #FFDFBF;
  }
  .sea {
    stroke: none;
    fill: #00BFFF;
  }
  .park {
    stroke: none;
    fill: #B2FF99;
  
  }
</style>
</defs>
  <sodipodi:namedview
     id="base"
     pagecolor="#ffffff"
     bordercolor="#666666"
     borderopacity="1.0"
     inkscape:pageopacity="0.0"
     inkscape:pageshadow="2"
     inkscape:zoom="0.35"
     inkscape:cx="375"
     inkscape:cy="405.71429"
     inkscape:document-units="px"
     inkscape:current-layer="layer1"
     showgrid="false"
     inkscape:window-width="1366"
     inkscape:window-height="706"
     inkscape:window-x="-8"
     inkscape:window-y="-8"
     inkscape:window-maximized="1" />
  <metadata
     id="metadata3722">
    <rdf:RDF>
      <cc:Work
         rdf:about="">
        <dc:format>image/svg+xml</dc:format>
        <dc:type
           rdf:resource="http://purl.org/dc/dcmitype/StillImage" />
      </cc:Work>
    </rdf:RDF>
  </metadata>
  <g
     inkscape:label="Layer 1"
     inkscape:groupmode="layer"
     id="layer1">
    <path
       class = "park"
	   title = "tophane_p1"
       d="m 109.12543,245.78942 84.14669,-35.15378 4.67483,16.49189 -8.0747,13.88794 -52.27294,36.45569 -11.04959,1.30204 -8.49966,-3.03797 -8.92463,-29.94581"
       id="path2995"
       inkscape:connector-curvature="0" />
    <path
       class = "sea"
       d="m 60.165311,296.47125 -19.930672,-25.21975 -15.59797,6.63678 0.433318,65.04039 c 0.241664,36.28107 -0.433318,72.56132 -0.433318,108.84316 l 0,124.32897 0,185.38729 373.916831,0.44246 -6.06587,-18.58298 -4.76602,-33.62638 -9.09878,-9.29142 -3.46623,-8.84909 3.46623,-12.38864 6.9324,-5.75186 1.73311,-2.21225 -5.19928,-4.42453 -5.19934,3.53962 -2.59964,-3.53962 2.59964,-6.63679 2.16637,-2.6547 -3.46617,-5.3094 -3.89955,2.21224 -3.46617,-4.42454 3.03296,-4.86695 -26.4298,-70.34985 2.59958,-9.73394 -17.76423,-22.12252 -1.29985,-7.07924 c 2.20325,-12.55648 4.51416,-25.09329 6.9324,-37.6084 0.71283,-3.689 1.43494,-7.37612 2.16638,-11.06132 l -5.19935,-9.73394 -11.26509,-8.40662 -9.09879,-0.44241 -20.36399,6.63679 -16.03117,-0.44246 -34.66206,-27.87446 -6.49913,-0.44246 -6.49914,-5.75192 3.8995,-9.73389 10.39862,-1.76983 6.49914,5.75192 0,6.19432 30.76256,22.12259 18.63082,-1.76984 14.29807,-10.61886 -5.1993,-8.40657 -24.69668,-19.46789 -2.59964,2.2123 -3.03291,-3.09716 6.49914,-7.96416 3.0329,4.42453 -2.16638,1.32739 24.69669,19.02537 7.36572,7.96416 23.39685,-14.60094 -26.86308,-30.97162 -1.73311,1.76984 -2.16638,-2.2123 6.49914,-4.86694 1.73311,0.88492 -2.16638,3.53957 28.16286,29.20183 24.26349,-29.64424 -57.19242,-84.06588 -75.82319,23.00752 12.565,28.31691 14.73139,-3.53963 4.33275,7.96417 -20.36399,7.9641 -9.9653,-0.44246 -2.59964,1.76978 6.06581,8.40662 -2.59964,5.75187 -22.53032,-0.88492 -1.29985,-23.00746 -1.73311,-1.76983 0.43332,-17.25559 1.73306,-7.5217 2.16638,-6.63678 -7.36567,-7.07925 -23.83016,-0.88486 -22.96358,13.71602 c -7.64097,-0.65358 -15.29927,-1.09627 -22.96363,-1.32738 -8.3742,-0.25254 -16.75576,-0.25254 -25.13001,0 l -16.464446,-7.96416 -8.665515,-3.09716 -19.064083,-2.6547 -6.932457,-3.09716 -1.733058,-29.20183"
       id="akdeniz"
       inkscape:connector-curvature="0" />
    <path
       class="park"
	   title="tophane_p2"
       d="m 204.81966,208.19057 -2.75737,30.66037 c -12.55861,8.0803 -25.019,16.31981 -37.37737,24.71594 -19.24733,13.07642 -38.24713,26.53277 -56.98521,40.35903 l 9.49753,4.38008 10.41666,0.9386 41.36022,0.93854 4.59557,-10.3244 2.75737,-3.75429 15.31863,-7.19582 7.04652,-6.88291 76.2867,-20.02312 -0.30642,-8.76012 -13.48032,-3.44143 -21.75245,-2.50289 -14.09315,-7.50866 -6.1274,-7.50867 -14.39951,-24.09025"
       id="tophane2"
       inkscape:connector-curvature="0" />
    <path
       class="city"
       d="m 367.19689,141.55126 -162.68358,66.01356 16.2377,26.90604 4.2892,5.31863 14.39951,7.50866 22.97793,2.50289 11.33572,3.44143 1.22554,9.07303 7.35287,15.33012 21.13967,-15.01728 0,-4.69293 -5.20832,-10.9501 7.9657,-4.69294 5.51468,12.20155 -3.06372,3.12864 0,2.50289 44.73036,-26.90604 -0.91912,-2.50288 28.4926,-21.27451 17.15682,-9.07297 c 4.5951,-0.21956 9.19073,-0.42814 13.78675,-0.62569 8.06645,-0.34675 16.13435,-0.65965 24.2034,-0.9386 l 0,-2.81579 -6.74022,-1.87713 c -1.8382,-0.0138 -3.6765,-0.0138 -5.51469,0 -4.1884,0.0315 -8.37632,0.13612 -12.56126,0.31284 l -0.61271,-2.81574 3.98279,-3.12858 -3.67644,-1.25144 -8.57841,-1.25146 -2.1446,-0.93859 -5.20833,-1.56429 -6.12745,-3.75433 -3.37009,-5.00579 -0.91912,-5.63146 -4.90192,-3.75434 -4.28926,-5.94437 0.91912,-5.00573 -2.75737,-3.44149 c -0.98733,-1.58704 -2.00888,-3.15183 -3.06367,-4.69293 -1.08837,-1.59008 -2.21212,-3.15493 -3.37008,-4.69288"
       id="cumhuriyetM"
       inkscape:connector-curvature="0" />
    <path
       class="city"
       d="m 42.136081,270.44985 61.887189,-23.1517 11.64214,33.78896 -56.985214,14.39159 Z"
       id="arazi1"
       inkscape:connector-curvature="0" />
    <path
       class="city"
       d="m 145.53667,315.97105 0,0"
	   title="unknown"
       id="path3023"
       inkscape:connector-curvature="0" />
    <path
       class="city"
       d="m 131.74993,315.81465 14.85904,0 c 0.25814,1.20998 0.51547,2.42011 0.77206,3.63047 0.77107,3.63759 1.535,7.27679 2.29167,10.91752 l -14.55269,0.15645 -3.37008,-14.70444"
       id="arazi2"
	   title="unknown"
       inkscape:connector-curvature="0" />
    <path
       class="city"
       d="m 150.89818,315.50175 4.28921,18.30238 20.98649,-3.75433 -2.45102,-14.39159 -22.82468,-0.15646"
       id="arazi3"
       inkscape:connector-curvature="0" />
    <path
       class="city"
       d="m 204.05372,282.02571 3.67649,14.70443 -15.47181,5.16222 1.22554,3.75429 16.2377,-5.00572 2.75731,-3.91079 11.79532,-2.34649 -3.9828,-10.48081 3.52326,-0.78214 3.21691,10.32441 9.19118,-1.095 -2.75737,-16.26878 -29.41173,5.94438"
       title="arazi4"
       inkscape:connector-curvature="0" />
    <path
       class="city"
       d="m 235.91646,274.98634 3.82962,16.42518 0.15318,0 16.39093,-4.69294 -3.37014,-15.64303 -17.00359,3.91079"
       title="arazi5"
       inkscape:connector-curvature="0" />
    <path
       class="city"
       d="m 257.51567,269.51125 4.13603,14.86089 17.31,-5.31862 -4.59556,-13.76589 -16.85047,4.22362"
       title="arazi6"
       inkscape:connector-curvature="0" />
    <path
       class="city"
       d="m 247.25219,294.853 -22.0588,3.59789 -5.97422,3.12858 -3.52332,3.28503 -1.22547,4.06719 -0.15318,5.94437 1.22548,3.44148 3.67649,3.59789 6.1274,4.69293 8.57846,3.44144 25.27571,-8.76012 0,-12.51439 -11.94855,-13.92229"
       title="arazi7"
       inkscape:connector-curvature="0" />
    <path
       class="city"
       d="m 282.63814,282.33855 -32.16905,12.0451 13.48039,15.01734 15.1654,4.84932 9.80394,-2.65928 0,-14.23514 -6.28068,-15.01734"
       title="arazi8"
       inkscape:connector-curvature="0" />
    <path
       class="city"
       d="m 261.49852,310.33958 0.15318,9.54226 13.48038,-4.69293 -13.63356,-4.84933"
       title="arazi9"
       inkscape:connector-curvature="0" />
    <path
       class="city"
       d="m 286.00828,281.86925 c 2.50828,2.45838 4.38875,5.56156 5.51249,8.92127 1.12381,3.35958 1.45205,6.93399 1.6872,10.4761 l 0.61277,9.22936 16.85047,-3.28504 -9.03794,-35.50964 -15.62499,10.16795"
       title="arazi10"
       inkscape:connector-curvature="0" />
    <path
       class="city"
       d="m 357.60897,238.5101 -48.31026,28.98061 c 1.48645,7.82266 3.0029,15.63938 4.54943,23.4499 0.71571,3.61473 1.43782,7.22807 2.16637,10.8401 l 8.44886,17.25559 c 3.3808,5.43984 6.8476,10.82391 10.39863,16.14949 5.50477,8.2557 11.21198,16.37073 17.11436,24.33483 l 14.73139,-12.60981 8.23219,-2.65477 16.03123,-17.47681 6.06588,-5.30946 -11.26522,-22.34376 -0.86653,-26.54714 -24.69669,0 -3.0329,-12.38864 0.43326,-21.68013"
       title="selcukMh"
       inkscape:connector-curvature="0" />
    <path
       style="fill:none;stroke:#000000;stroke-width:0.99999994px;stroke-linecap:butt;stroke-linejoin:miter;stroke-opacity:1"
       d="m 418.36101,338.34061 0.61277,30.66031 16.23769,-1.56429 -0.91913,-31.59891 -15.93133,2.50289"
       id="path3143"
       inkscape:connector-curvature="0" />
    <path
       class="city"
       d="m 364.43952,240.72808 -2.45102,9.07296 0.91913,8.44721 2.45101,6.25722 19.60778,-0.62568 -0.91906,-10.63732 -19.60784,-12.51439"
       title="path3159"
       inkscape:connector-curvature="0" />
    <path
       style="fill:none;stroke:#000000;stroke-width:0.99999994px;stroke-linecap:butt;stroke-linejoin:miter;stroke-opacity:1"
       d="m 364.74588,233.21941 30.33085,-20.6488 8.27205,-3.12859 58.82347,-6.25722 -2.14461,8.44721 -17.15688,14.0788 -42.27934,0 -18.99508,16.58156 -16.85046,-9.07296"
       id="path3163"
       inkscape:connector-curvature="0" />
    <path
       style="fill:none;stroke:#000000;stroke-width:0.99999994px;stroke-linecap:butt;stroke-linejoin:miter;stroke-opacity:1"
       d="m 434.59876,32.049988 1.83819,58.504946 23.28427,-7.821462 -2.45095,-58.817848 -22.67151,8.134364"
       id="path3167"
       inkscape:connector-curvature="0" />
    <path
       style="fill:none;stroke:#000000;stroke-width:0.99999994px;stroke-linecap:butt;stroke-linejoin:miter;stroke-opacity:1"
       d="m 469.52512,22.351333 0.61277,26.906034 14.0931,5.318627 -2.75737,-27.53173 -11.9485,-4.692931"
       id="path3183"
       inkscape:connector-curvature="0" />
    <path
       style="fill:none;stroke:#000000;stroke-width:0.99999994px;stroke-linecap:butt;stroke-linejoin:miter;stroke-opacity:1"
       d="m 431.84139,114.01948 -15.9314,6.88297 2.75737,4.06719 -23.28428,10.01155 21.13967,23.7774 9.8039,-8.13436 -1.53184,-3.44149 12.56127,-21.27456 -5.51469,-11.8887"
       id="path3187"
       inkscape:connector-curvature="0" />
    <path
       style="fill:none;stroke:#000000;stroke-width:0.99999994px;stroke-linecap:butt;stroke-linejoin:miter;stroke-opacity:1"
       d="m 464.92956,108.70091 -3.9828,8.76005 18.68866,6.25723 0.30636,2.50289 4.28921,-0.3129 -3.67644,37.23044 4.59556,0 18.07595,-40.98472 -38.2965,-13.45299"
       id="path3195"
       inkscape:connector-curvature="0" />
    <path
       style="fill:none;stroke:#000000;stroke-width:0.99999994px;stroke-linecap:butt;stroke-linejoin:miter;stroke-opacity:1"
       d="m 452.3683,132.47831 -3.67644,7.82151 -15.01222,18.77162 12.5612,4.38008 27.8799,0.93854 3.37008,-23.77739 -7.9657,-0.31285 -10.11024,-6.25722 -7.04658,-1.56429"
       id="path3199"
       inkscape:connector-curvature="0" />
    <path
       style="fill:none;stroke:#000000;stroke-width:0.99999994px;stroke-linecap:butt;stroke-linejoin:miter;stroke-opacity:1"
       d="m 503.83882,141.55126 -14.39951,26.90598 0.30641,12.51446 15.01223,0.62569 3.06366,-39.42043 -3.98279,-0.6257"
       id="path3203"
       inkscape:connector-curvature="0" />
    <path
       style="fill:none;stroke:#000000;stroke-width:0.99999994px;stroke-linecap:butt;stroke-linejoin:miter;stroke-opacity:1"
       d="m 483.0055,196.61472 -12.25491,3.44149 -0.91911,7.50861 -4.28915,8.76012 -19.9142,15.95588 1.22548,50.05773 8.272,-0.31284 7.04664,10.0115 6.74016,0 4.28921,5.63152 14.39951,-14.07873 7.96564,-31.28607 -3.37008,-0.62575 11.64213,-64.13642 -14.0931,-0.31284 -12.56125,54.43771 0.30635,25.65459 -6.74023,0 -0.91911,-28.78318 13.17402,-41.92332"
       id="path3211"
       inkscape:connector-curvature="0" />
    <path
       style="fill:none;stroke:#000000;stroke-width:0.99999994px;stroke-linecap:butt;stroke-linejoin:miter;stroke-opacity:1"
       d="m 437.04972,232.90656 -31.55634,-1.56434 -16.23775,14.70449 20.52696,24.716 10.1103,-9.07297 17.15683,-1.56429 0,-27.21889"
       id="path3215"
       inkscape:connector-curvature="0" />
    <path
       style="fill:none;stroke:#000000;stroke-width:0.99999994px;stroke-linecap:butt;stroke-linejoin:miter;stroke-opacity:1"
       d="m 394.1576,263.25404 0,38.48188 6.74017,7.19577 18.07601,-5.00578 20.5269,-15.95588 -2.1446,-20.64881 -13.17398,0.31284 -12.86767,14.70449 -17.15683,-19.08451"
       id="path3219"
       inkscape:connector-curvature="0" />
    <path
       style="fill:none;stroke:#000000;stroke-width:0.99999994px;stroke-linecap:butt;stroke-linejoin:miter;stroke-opacity:1"
       d="m 375.46889,403.72847 -19.30143,22.83886 5.20833,0 12.86762,-6.25723 9.19118,-8.44721 -7.9657,-8.13442"
       id="path3227"
       inkscape:connector-curvature="0" />
    <path
       style="fill:none;stroke:#000000;stroke-width:0.99999994px;stroke-linecap:butt;stroke-linejoin:miter;stroke-opacity:1"
       d="m 338.09152,445.65179 72.91655,-36.91754 3.67644,25.34175 -53.61507,28.15742 -22.97792,-16.58163"
       id="path3231"
       inkscape:connector-curvature="0" />
    <path
       style="fill:none;stroke:#000000;stroke-width:0.99999994px;stroke-linecap:butt;stroke-linejoin:miter;stroke-opacity:1"
       d="m 355.55475,363.6823 3.06367,-4.69294 7.9657,-3.44143 9.19113,-7.19582 4.59561,10.95015 0,26.59314 6.43382,16.26878 -19.91415,-14.70444 -11.33578,-23.77744"
       id="path3235"
       inkscape:connector-curvature="0" />
    <path
       style="fill:none;stroke:#000000;stroke-width:0.99999994px;stroke-linecap:butt;stroke-linejoin:miter;stroke-opacity:1"
       d="m 398.75316,327.39045 -13.17397,13.1402 0.30636,1.87715 -4.59556,3.44148 2.45095,10.01156 -0.30635,25.34168 8.88477,25.02884 -1.53184,9.38581 11.33573,-5.94433 -6.74017,-42.23621 4.28921,-6.57007 -0.91913,-33.47611"
       id="path3239"
       inkscape:connector-curvature="0" />
    <path
       style="fill:none;stroke:#000000;stroke-width:0.99999994px;stroke-linecap:butt;stroke-linejoin:miter;stroke-opacity:1"
       d="m 403.34878,330.51909 -0.61277,32.85035 -3.98285,6.57008 6.43387,37.54329 5.82104,-2.50289 -0.30635,-66.32646 -7.35294,-8.13437"
       id="path3243"
       inkscape:connector-curvature="0" />
    <path
       style="fill:none;stroke:#000000;stroke-width:0.99999994px;stroke-linecap:butt;stroke-linejoin:miter;stroke-opacity:1"
       d="m 418.97378,379.01248 -1.5319,33.16326 5.20833,17.83302 16.85047,-7.50862 -4.59557,-47.86769 -15.93133,4.38003"
       id="path3247"
       inkscape:connector-curvature="0" />
    <path
       style="fill:none;stroke:#000000;stroke-width:0.99999994px;stroke-linecap:butt;stroke-linejoin:miter;stroke-opacity:1"
       d="m 444.70901,289.84716 -13.48039,14.70449 -26.04159,13.14015 8.272,13.14014 38.29656,-8.13437 17.46317,-19.39736 -3.06372,-5.94432 -3.98279,0.93854 -5.20839,-4.69288 -2.45096,-4.06723 -9.80389,0.31284"
       id="path3251"
       inkscape:connector-curvature="0" />
    <path
       style="fill:none;stroke:#000000;stroke-width:0.99999994px;stroke-linecap:butt;stroke-linejoin:miter;stroke-opacity:1"
       d="m 474.7335,310.80887 -16.23775,19.08453 -17.15688,4.69287 0,1.87715 30.63726,10.95015 6.12745,7.50866 18.68866,-10.63724 -22.05874,-33.47612"
       id="path3255"
       inkscape:connector-curvature="0" />
    <path
       style="fill:none;stroke:#000000;stroke-width:0.99999994px;stroke-linecap:butt;stroke-linejoin:miter;stroke-opacity:1"
       d="m 442.25799,342.7207 4.90198,76.96365 24.50975,-1.25144 39.52203,-35.66609 2.14461,-15.95589 -14.39951,-17.83307 -21.13967,17.52023 -14.39946,-16.89454 -18.38235,-8.13436 -2.75738,1.25151"
       id="path3259"
       inkscape:connector-curvature="0" />
    <path
       style="fill:none;stroke:#000000;stroke-width:0.99999994px;stroke-linecap:butt;stroke-linejoin:miter;stroke-opacity:1"
       d="m 414.68451,446.27753 -31.55627,16.58163 9.19112,7.50867 -3.06373,6.57002 10.1103,4.38009 1.22549,7.50861 6.12745,4.38008 24.50975,-18.14592 -3.06373,-10.3244 -13.48038,-18.45878"
       id="path3263"
       inkscape:connector-curvature="0" />
    <path
       style="fill:none;stroke:#000000;stroke-width:0.99999994px;stroke-linecap:butt;stroke-linejoin:miter;stroke-opacity:1"
       d="m 446.54725,427.50586 -24.20339,16.58164 6.4338,11.263 20.52691,-4.06718 23.28428,-17.20732 -2.45096,-6.88298 -23.59064,0.31284"
       id="path3267"
       inkscape:connector-curvature="0" />
    <path
       style="fill:none;stroke:#000000;stroke-width:0.99999994px;stroke-linecap:butt;stroke-linejoin:miter;stroke-opacity:1"
       d="m 476.26534,438.14317 8.88477,16.58158 -39.21563,35.04039 -20.5269,13.14015 -6.4338,-6.25716 23.59062,-19.71028 -8.27206,-14.07869 23.28428,-9.07301 18.68872,-15.64298"
       id="path3275"
       inkscape:connector-curvature="0" />
    <path
       style="fill:none;stroke:#000000;stroke-width:0.99999994px;stroke-linecap:butt;stroke-linejoin:miter;stroke-opacity:1"
       d="m 509.35351,396.84555 -32.16904,27.84464 12.86761,20.33591 15.62499,-14.39159 3.06367,3.44149 -29.41167,39.10757 -49.32592,36.29179 2.45095,5.63154 50.24505,-36.60476 48.4068,-60.38208 -21.75244,-21.27451"
       id="path3279"
       inkscape:connector-curvature="0" />
    <path
       style="fill:none;stroke:#000000;stroke-width:0.99999994px;stroke-linecap:butt;stroke-linejoin:miter;stroke-opacity:1"
       d="m 361.06944,470.68069 -26.04165,-18.77167 -5.82104,4.06718 9.19112,16.26878 2.14466,7.82152 7.35287,16.58163 4.59563,14.70442 8.88476,-1.56429 36.76466,-13.45304 -2.45095,-12.51439 -11.33579,-3.44149 4.59557,-8.76006 -12.25491,-6.57013 -15.62493,5.63154"
       id="path3283"
       inkscape:connector-curvature="0" />
    <path
       style="fill:none;stroke:#000000;stroke-width:0.99999994px;stroke-linecap:butt;stroke-linejoin:miter;stroke-opacity:1"
       d="m 403.04237,497.89951 -47.48762,18.77168 13.78674,22.52594 54.22784,-19.39736 -3.98284,-8.13437 -3.6765,-0.93859 -12.86762,-12.8273"
       id="path3287"
       inkscape:connector-curvature="0" />
    <path
       style="fill:none;stroke:#000000;stroke-width:0.99999994px;stroke-linecap:butt;stroke-linejoin:miter;stroke-opacity:1"
       d="m 397.8341,550.14729 -3.06373,-9.69871 -16.23775,5.31863 9.80389,30.97319 -1.22549,34.10181 15.62499,20.33596 30.94363,-30.34747 -12.56126,-11.88869 -13.48039,12.20153 -5.51474,-5.00576 14.3995,-14.07875 -15.93133,-23.46453 -3.37009,-0.31285 -3.98285,-6.88291 4.59562,-1.25145"
       id="path3291"
       inkscape:connector-curvature="0" />
    <path
       style="fill:none;stroke:#000000;stroke-width:0.99999994px;stroke-linecap:butt;stroke-linejoin:miter;stroke-opacity:1"
       d="m 402.12325,537.32 3.37013,14.39158 16.23771,22.52594 16.85046,-16.58162 -9.49753,-31.28607 -26.96077,10.95017"
       id="path3295"
       inkscape:connector-curvature="0" />
    <path
       style="fill:none;stroke:#000000;stroke-width:0.99999994px;stroke-linecap:butt;stroke-linejoin:miter;stroke-opacity:1"
       d="m 443.48353,562.97457 -16.54412,18.77162 31.8627,31.28605 15.93139,-19.39736 -31.24997,-30.66031"
       id="path3299"
       inkscape:connector-curvature="0" />
    <path
       style="fill:none;stroke:#000000;stroke-width:0.99999994px;stroke-linecap:butt;stroke-linejoin:miter;stroke-opacity:1"
       d="m 454.20654,621.16661 -15.01222,-15.01734 -31.24997,32.22466 7.65929,12.51446 21.13967,-9.07297 17.46323,-20.64881"
       id="path3303"
       inkscape:connector-curvature="0" />
    <path
       style="fill:none;stroke:#000000;stroke-width:0.99999994px;stroke-linecap:butt;stroke-linejoin:miter;stroke-opacity:1"
       d="m 467.99328,527.93419 -17.46323,-16.26879 -12.86762,13.14014 8.57841,31.91182 31.55634,30.0346 14.39951,-15.64309 -22.97793,-20.02304 -1.22548,-23.15164"
       id="path3307"
       inkscape:connector-curvature="0" />
    <path
       style="fill:none;stroke:#000000;stroke-width:0.99999994px;stroke-linecap:butt;stroke-linejoin:miter;stroke-opacity:1"
       d="m 480.8609,601.4564 -14.70586,16.58163 28.79896,28.15748 3.6765,-9.07297 -5.51469,-10.01155 2.14455,-11.57586 -14.39946,-14.07873"
       id="path3311"
       inkscape:connector-curvature="0" />
    <path
       style="fill:none;stroke:#000000;stroke-width:0.99999994px;stroke-linecap:butt;stroke-linejoin:miter;stroke-opacity:1"
       d="m 498.93685,577.36616 -12.25485,17.52016 38.60286,39.42044 8.88476,-22.21311 -35.23277,-34.72749"
       id="path3315"
       inkscape:connector-curvature="0" />
    <path
       style="fill:none;stroke:#000000;stroke-width:0.99999994px;stroke-linecap:butt;stroke-linejoin:miter;stroke-opacity:1"
       d="m 499.85597,619.60232 -1.53183,3.44148 7.04652,14.39159 -4.28921,13.14014 12.25491,13.14015 9.49753,-20.33596 -22.97792,-23.7774"
       id="path3319"
       inkscape:connector-curvature="0" />
    <path
       style="fill:none;stroke:#000000;stroke-width:0.99999994px;stroke-linecap:butt;stroke-linejoin:miter;stroke-opacity:1"
       d="m 474.7335,637.74823 -10.1103,12.8273 22.67151,23.7774 11.64214,-11.57585 -24.20335,-25.02885"
       id="path3323"
       inkscape:connector-curvature="0" />
    <path
       style="fill:none;stroke:#000000;stroke-width:0.99999994px;stroke-linecap:butt;stroke-linejoin:miter;stroke-opacity:1"
       d="m 420.19925,720.34343 -8.57841,-47.86764 6.43381,-8.13442 22.67151,-11.88869 19.91419,-26.59314 8.88477,7.50867 -13.78674,19.08447 31.86275,34.10179 17.46317,-17.52017 7.35294,5.94432 0.91912,13.14015 -14.09309,1.8772 0.6127,7.50866 37.37737,-3.12859 5.2084,7.19577 22.97785,-2.19004 0.30636,10.63725 -145.5267,10.32441"
       id="path3327"
       inkscape:connector-curvature="0" />
    <path
       style="fill:none;stroke:#000000;stroke-width:0.99999994px;stroke-linecap:butt;stroke-linejoin:miter;stroke-opacity:1"
       d="m 558.67943,599.57926 -16.23769,15.33013 0.91906,6.25722 -22.97792,52.56062 0.61277,9.07297 c 3.96067,0.76248 7.94652,1.38867 11.94849,1.87713 3.36052,0.41016 6.73245,0.72317 10.11031,0.9386 l 2.75737,5.63148 21.13967,-0.31285 6.43381,-38.16904 6.1274,-5.00572 -0.61271,-12.51445 -15.01228,-7.19583 0,-20.3359 -5.20828,-8.13436"
       id="path3331"
       inkscape:connector-curvature="0" />
    <path
       style="fill:none;stroke:#000000;stroke-width:0.99999994px;stroke-linecap:butt;stroke-linejoin:miter;stroke-opacity:1"
       d="m 519.46381,550.77298 -16.23775,20.02304 35.84554,33.16327 15.01228,-15.33019 -34.62007,-37.85612"
       id="path3335"
       inkscape:connector-curvature="0" />
    <path
       style="fill:none;stroke:#000000;stroke-width:0.99999994px;stroke-linecap:butt;stroke-linejoin:miter;stroke-opacity:1"
       d="m 632.51511,613.03224 -52.696,45.99056 -4.90198,40.98471 58.2107,-54.12491 6.12745,2.81579 15.01222,-12.82729 -21.75239,-22.83886"
       id="path3339"
       inkscape:connector-curvature="0" />
    <path
       style="fill:none;stroke:#000000;stroke-width:0.99999994px;stroke-linecap:butt;stroke-linejoin:miter;stroke-opacity:1"
       d="m 627.00038,606.77503 -19.60779,-24.716 -6.74022,-18.77161 -37.99015,28.47032 9.80396,12.20155 0.6127,18.45877 14.39951,6.88292 0.91913,10.01155 38.60286,-32.5375"
       id="path3343"
       inkscape:connector-curvature="0" />
    <path
       style="fill:none;stroke:#000000;stroke-width:0.99999994px;stroke-linecap:butt;stroke-linejoin:miter;stroke-opacity:1"
       d="m 589.31659,526.68274 -38.60285,45.99048 9.80388,9.69866 35.23283,-27.21881 -6.43386,-28.47033"
       id="path3347"
       inkscape:connector-curvature="0" />
    <path
       style="fill:none;stroke:#000000;stroke-width:0.99999994px;stroke-linecap:butt;stroke-linejoin:miter;stroke-opacity:1"
       d="m 538.45888,515.73259 -20.52696,21.2745 26.65436,28.47037 20.83331,-23.15169 -26.96071,-26.59318"
       id="path3351"
       inkscape:connector-curvature="0" />
    <path
       style="fill:none;stroke:#000000;stroke-width:0.99999994px;stroke-linecap:butt;stroke-linejoin:miter;stroke-opacity:1"
       d="m 559.29214,487.88801 -15.93134,20.02305 27.26713,26.2803 16.54411,-19.08446 -27.8799,-27.21889"
       id="path3355"
       inkscape:connector-curvature="0" />
    <path
       style="fill:none;stroke:#000000;stroke-width:0.99999994px;stroke-linecap:butt;stroke-linejoin:miter;stroke-opacity:1"
       d="m 630.98322,508.22397 -3.98284,15.64298 -17.15683,6.25728 -12.25485,-10.01156 -3.06372,1.56429 7.35286,28.78317 5.51475,-1.87719 1.5319,5.94438 -4.59563,2.19004 11.02938,20.6488 18.076,22.8388 7.35287,-10.63726 -7.96564,-22.52595 9.19112,-10.63729 -9.49748,-22.8388 10.4166,-12.51445 -5.51468,-9.69866 -6.43381,-3.12858"
       id="path3359"
       inkscape:connector-curvature="0" />
    <path
       style="fill:none;stroke:#000000;stroke-width:0.99999994px;stroke-linecap:butt;stroke-linejoin:miter;stroke-opacity:1"
       d="m 536.62063,501.9667 -12.86761,15.33023 -34.31371,-32.22466 11.33579,-16.26877 35.84553,33.1632"
       id="path3363"
       inkscape:connector-curvature="0" />
    <path
       style="fill:none;stroke:#000000;stroke-width:0.99999994px;stroke-linecap:butt;stroke-linejoin:miter;stroke-opacity:1"
       d="m 495.26036,563.28742 19.30147,-19.08451 -15.93133,-14.70443 -14.0931,-4.38008 -9.49754,5.31867 3.37008,15.95588 16.85042,16.89447"
       id="path3367"
       inkscape:connector-curvature="0" />
    <path
       style="fill:none;stroke:#000000;stroke-width:0.99999994px;stroke-linecap:butt;stroke-linejoin:miter;stroke-opacity:1"
       d="m 576.14262,464.42345 -13.17398,16.26874 27.26707,28.15748 11.64213,-13.14015 -7.65922,-14.07873 -18.38236,-15.95588"
       id="path3371"
       inkscape:connector-curvature="0" />
    <path
       style="fill:none;stroke:#000000;stroke-width:0.99999994px;stroke-linecap:butt;stroke-linejoin:miter;stroke-opacity:1"
       d="m 666.21605,480.69219 -2.75737,24.40314 18.3823,9.38581 23.89704,-17.52017 -6.43381,-9.07296 -18.68871,6.25722 -14.39945,-13.45304"
       id="path3375"
       inkscape:connector-curvature="0" />
    <path
       style="fill:none;stroke:#000000;stroke-width:0.99999994px;stroke-linecap:butt;stroke-linejoin:miter;stroke-opacity:1"
       d="m 508.43438,462.54626 32.47546,31.59897 10.41666,-11.88869 -33.08817,-33.78896 -9.80395,14.07868"
       id="path3379"
       inkscape:connector-curvature="0" />
    <path
       style="fill:none;stroke:#000000;stroke-width:0.99999994px;stroke-linecap:butt;stroke-linejoin:miter;stroke-opacity:1"
       d="m 536.62063,422.18724 -14.09315,19.39737 33.701,32.53751 12.86761,-15.95588 -32.47546,-35.979"
       id="path3383"
       inkscape:connector-curvature="0" />
    <path
       style="fill:none;stroke:#000000;stroke-width:0.99999994px;stroke-linecap:butt;stroke-linejoin:miter;stroke-opacity:1"
       d="m 549.48825,404.66707 -8.57841,10.9501 32.47546,34.10186 9.80389,-11.8887 -33.70094,-33.16326"
       id="path3387"
       inkscape:connector-curvature="0" />
    <path
       style="fill:none;stroke:#000000;stroke-width:0.99999994px;stroke-linecap:butt;stroke-linejoin:miter;stroke-opacity:1"
       d="m 591.15483,444.40035 -9.80389,12.51444 20.83332,20.33592 6.12746,10.95014 25.42888,13.14015 -5.51475,-22.83886 -37.07102,-34.10179"
       id="path3391"
       inkscape:connector-curvature="0" />
    <path
       style="fill:none;stroke:#000000;stroke-width:0.99999994px;stroke-linecap:butt;stroke-linejoin:miter;stroke-opacity:1"
       d="m 606.77982,422.50014 -11.33573,14.70444 41.97294,39.42043 8.27205,31.28605 8.57842,-1.56429 3.98285,-34.41464 -51.47053,-49.43199"
       id="path3395"
       inkscape:connector-curvature="0" />
    <path
       style="fill:none;stroke:#000000;stroke-width:0.99999994px;stroke-linecap:butt;stroke-linejoin:miter;stroke-opacity:1"
       d="m 566.03236,382.76682 -10.1103,14.07873 33.08817,33.78896 11.33578,-15.33019 -34.31365,-32.5375"
       id="path3399"
       inkscape:connector-curvature="0" />
    <path
       style="fill:none;stroke:#000000;stroke-width:0.99999994px;stroke-linecap:butt;stroke-linejoin:miter;stroke-opacity:1"
       d="m 667.13512,444.40035 -5.51469,18.77167 -49.32586,-48.18055 10.41666,-14.39158 44.42389,43.80046"
       id="path3403"
       inkscape:connector-curvature="0" />
    <path
       style="fill:none;stroke:#000000;stroke-width:0.99999994px;stroke-linecap:butt;stroke-linejoin:miter;stroke-opacity:1"
       d="m 597.5887,337.08916 -26.65442,37.54329 34.31371,32.85036 29.41172,-37.54329 -38.6029,-31.91176 1.53189,-0.9386"
       id="path3407"
       inkscape:connector-curvature="0" />
    <path
       style="fill:none;stroke:#000000;stroke-width:0.99999994px;stroke-linecap:butt;stroke-linejoin:miter;stroke-opacity:1"
       d="m 640.48076,377.44819 -14.0931,16.26873 38.90927,39.42048 8.27205,-25.34174 -33.08822,-30.34747"
       id="path3411"
       inkscape:connector-curvature="0" />
    <path
       style="fill:none;stroke:#000000;stroke-width:0.99999994px;stroke-linecap:butt;stroke-linejoin:miter;stroke-opacity:1"
       d="m 613.8264,312.99886 -11.33579,17.83308 35.53919,32.5375 13.48039,-16.58162 -37.68379,-33.78896"
       id="path3415"
       inkscape:connector-curvature="0" />
    <path
       style="fill:none;stroke:#000000;stroke-width:0.99999994px;stroke-linecap:butt;stroke-linejoin:miter;stroke-opacity:1"
       d="m 657.63758,352.7322 -12.56126,18.77162 35.23282,31.28611 7.35293,-21.27457 -30.02449,-28.78316"
       id="path3419"
       inkscape:connector-curvature="0" />
    <path
       style="fill:none;stroke:#000000;stroke-width:0.99999994px;stroke-linecap:butt;stroke-linejoin:miter;stroke-opacity:1"
       d="m 681.22826,308.30599 -23.28432,30.97322 -38.60285,-34.41471 30.94361,-44.73905 17.76954,14.70444 13.17402,33.4761"
       id="path3423"
       inkscape:connector-curvature="0" />
    <path
       style="fill:none;stroke:#000000;stroke-width:0.99999994px;stroke-linecap:butt;stroke-linejoin:miter;stroke-opacity:1"
       d="m 594.21862,326.76475 -28.18626,40.35903 7.35294,-37.85613 11.33572,-10.0115 9.4976,7.5086"
       id="path3427"
       inkscape:connector-curvature="0" />
    <path
       style="fill:none;stroke:#000000;stroke-width:0.99999994px;stroke-linecap:butt;stroke-linejoin:miter;stroke-opacity:1"
       d="m 575.22349,278.27137 -9.8039,45.9905 2.45103,0.93859 14.39945,-13.76589 15.01222,9.69872 11.33578,-13.76589 -33.39458,-29.09603"
       id="path3431"
       inkscape:connector-curvature="0" />
    <path
       style="fill:none;stroke:#000000;stroke-width:0.99999994px;stroke-linecap:butt;stroke-linejoin:miter;stroke-opacity:1"
       d="m 616.89012,193.79899 -21.75244,15.64303 -0.6127,13.14014 -3.98285,7.19577 -11.64214,40.67192 33.39458,29.09602 31.24991,-48.80623 -15.93134,-29.40892 -10.72302,-27.53173"
       id="path3435"
       inkscape:connector-curvature="0" />
    <path
       style="fill:none;stroke:#000000;stroke-width:0.99999994px;stroke-linecap:butt;stroke-linejoin:miter;stroke-opacity:1"
       d="m 563.27499,329.26765 -8.88476,33.78895 7.35287,2.50289 5.8211,-34.72755 -4.28921,-1.56429"
       id="path3439"
       inkscape:connector-curvature="0" />
    <path
       style="fill:none;stroke:#000000;stroke-width:0.99999994px;stroke-linecap:butt;stroke-linejoin:miter;stroke-opacity:1"
       d="m 564.19412,293.28865 -7.35293,3.12864 -10.72302,56.31491 -25.42888,33.78895 6.43381,14.39159 23.59064,-45.0519 13.48038,-62.57219"
       id="path3443"
       inkscape:connector-curvature="0" />
    <path
       style="fill:none;stroke:#000000;stroke-width:0.99999994px;stroke-linecap:butt;stroke-linejoin:miter;stroke-opacity:1"
       d="m 531.41231,406.23136 3.67644,5.00578 26.65435,-37.54329 -10.4166,-3.12864 -19.91419,35.66615"
       id="path3447"
       inkscape:connector-curvature="0" />
    <path
       style="fill:none;stroke:#000000;stroke-width:0.99999994px;stroke-linecap:butt;stroke-linejoin:miter;stroke-opacity:1"
       d="m 501.69422,255.43252 -4.90198,31.28606 -18.07594,18.14592 35.84553,54.75061 6.43382,5.00579 4.28921,1.25144 7.04657,-4.38003 6.12745,-14.70449 5.82104,-30.34747 -15.01222,-0.9386 -5.51468,-8.13435 2.1446,-4.38004 c -0.37669,1.00443 -0.41822,2.13559 -0.12057,3.1673 0.2976,1.03176 0.93047,1.95374 1.75742,2.61991 0.82696,0.66613 1.8356,1.07396 2.8719,1.26586 1.03635,0.19196 2.09771,0.17257 3.15054,0.1427 l 11.02937,-0.31285 11.02943,-50.37053 -11.64214,-13.45304 -16.54411,0.62574 -5.20834,5.00573 17.15689,15.01734 -5.51475,5.63148 -18.99501,-17.20733 -13.17403,0.31285"
       id="path3455"
       inkscape:connector-curvature="0" />
    <path
       style="fill:none;stroke:#000000;stroke-width:0.99999994px;stroke-linecap:butt;stroke-linejoin:miter;stroke-opacity:1"
       d="m 612.60092,185.03887 -25.73529,22.2131 0.91912,10.63726 -1.83819,5.00578 -5.20833,9.07296 -11.94849,5.31868 -1.53189,-16.58168 -3.06373,-7.19577 -3.98285,-5.00577 -5.51469,-7.82153 16.54412,-20.6488 -4.90198,-3.12859 -17.76959,17.83302 -7.04652,-5.00572 9.80389,-23.1517 -6.12745,-22.8388 12.25491,-4.06725 7.35287,13.45305 11.64213,4.69289 9.4976,3.75433 13.17397,-2.19004 z"
       id="path3465"
       inkscape:connector-curvature="0" />
    <path
       style="fill:none;stroke:#000000;stroke-width:0.99999994px;stroke-linecap:butt;stroke-linejoin:miter;stroke-opacity:1"
       d="m 647.52733,93.996421 31.86269,61.633589 19.91419,-8.76011 -29.41172,-55.689215 z"
       id="path3467"
       inkscape:connector-curvature="0" />
    <path
       style="fill:none;stroke:#000000;stroke-width:0.99999994px;stroke-linecap:butt;stroke-linejoin:miter;stroke-opacity:1"
       d="m 602.49061,110.26521 33.39459,61.63352 20.52691,-8.76011 -29.10532,-56.31491 z"
       id="path3469"
       inkscape:connector-curvature="0" />
    <path
       style="fill:none;stroke:#000000;stroke-width:0.99999994px;stroke-linecap:butt;stroke-linejoin:miter;stroke-opacity:1"
       d="m 620.2602,180.346 11.02937,-5.31868 -38.29649,-64.76211 -70.77196,11.57584 10.72302,13.45299 5.8211,1.25145 21.44603,-4.69288 6.74022,5.63142 4.28921,10.63725 16.23769,5.63153 16.54406,-1.56429 z"
       id="path3471"
       inkscape:connector-curvature="0" />
    <path
       style="fill:none;stroke:#000000;stroke-width:0.99999994px;stroke-linecap:butt;stroke-linejoin:miter;stroke-opacity:1"
       d="m 520.07652,148.12128 18.68872,-3.75428 7.35293,21.90025 -11.94855,23.7774 -21.75238,-10.3244 10.11024,-13.76584 z"
       id="path3473"
       inkscape:connector-curvature="0" />
    <path
       style="fill:none;stroke:#000000;stroke-width:0.99999994px;stroke-linecap:butt;stroke-linejoin:miter;stroke-opacity:1"
       d="m 661.92684,74.599053 -26.65441,-46.616191 -27.57348,0.312847 29.41173,50.370525 z"
       id="path3475"
       inkscape:connector-curvature="0" />
    <path
       style="fill:none;stroke:#000000;stroke-width:0.99999994px;stroke-linecap:butt;stroke-linejoin:miter;stroke-opacity:1"
       d="m 616.27736,83.984914 -30.3308,-52.560621 -27.87989,2.190042 30.02443,54.124863 z"
       id="path3477"
       inkscape:connector-curvature="0" />
    <path
       style="fill:none;stroke:#000000;stroke-width:0.99999994px;stroke-linecap:butt;stroke-linejoin:miter;stroke-opacity:1"
       d="m 485.76287,27.357112 0.91913,29.096021 17.46318,3.754334 29.41173,4.38003 32.47545,-1.25139 -16.85052,-29.408924 -25.42882,0 z"
       id="path3479"
       inkscape:connector-curvature="0" />
    <path
       style="fill:none;stroke:#000000;stroke-width:0.99999994px;stroke-linecap:butt;stroke-linejoin:miter;stroke-opacity:1"
       d="m 470.75059,54.888842 0.91913,29.408916 6.43386,0.938603 12.86763,4.692878 7.35293,1.251446 -15.93141,-31.911759 z"
       id="path3481"
       inkscape:connector-curvature="0" />
    <path
       style="fill:none;stroke:#000000;stroke-width:0.99999994px;stroke-linecap:butt;stroke-linejoin:miter;stroke-opacity:1"
       d="m 505.98343,93.68357 -17.46318,-32.224657 47.79397,8.134361 13.48039,21.900255 z"
       id="path3483"
       inkscape:connector-curvature="0" />
    <path
       style="fill:none;stroke:#000000;stroke-width:0.99999994px;stroke-linecap:butt;stroke-linejoin:miter;stroke-opacity:1"
       d="M 578.28722,88.990636 557.76031,92.11928 546.73089,71.157622 568.78974,70.219024 z"
       id="path3485"
       inkscape:connector-curvature="0" />
    <path
       style="fill:none;stroke:#000000;stroke-width:0.99999994px;stroke-linecap:butt;stroke-linejoin:miter;stroke-opacity:1"
       d="m 512.41724,189.41896 -8.27206,56.002 13.17403,1.25149 4.90191,-6.88296 4.90198,3.75433 5.82104,-4.69288 8.27206,2.50284 6.12745,0.93859 8.27206,4.69294 2.75736,-2.19005 1.22549,-20.64881 -9.49759,-14.07873 -13.48034,-10.01151 -13.17402,-6.57007 z"
       id="path3487"
       inkscape:connector-curvature="0" />
    <path
       style="fill:none;stroke:#000000;stroke-width:0.99999994px;stroke-linecap:butt;stroke-linejoin:miter;stroke-opacity:1"
       d="m 683.67922,316.1275 -21.75238,31.59892 34.62,28.47032 -9.49754,35.66615 1.22554,5.63142 7.35288,0.62575 13.78674,-7.19576 12.25491,-40.98478 -12.56127,-32.53751 z"
       id="path3489"
       inkscape:connector-curvature="0" />
    <path
       style="fill:none;stroke:#000000;stroke-width:0.99999994px;stroke-linecap:butt;stroke-linejoin:miter;stroke-opacity:1"
       d="m 657.63758,166.58011 -34.62,21.5874 28.18619,59.13064 21.13967,21.27451 12.86762,32.22466 15.62499,-15.01728 7.96569,2.81568 13.48034,-1.56429 z"
       id="path3491"
       inkscape:connector-curvature="0" />
    <path
       style="fill:none;stroke:#000000;stroke-width:0.99999994px;stroke-linecap:butt;stroke-linejoin:miter;stroke-opacity:1"
       d="m 725.65222,296.41729 -11.33579,4.38003 -3.37008,4.06718 -24.50975,3.12864 0.91912,3.44143 7.35287,6.57008 21.13974,12.82729 16.23769,41.61047 -9.19117,28.15748 -5.51469,16.58157 -5.20833,3.44149 -18.07595,7.82151 10.41666,15.33019 37.68379,15.95588 4.59556,-68.2036 -2.1446,-35.35325 -4.28921,-27.53173 -4.90197,-12.51445 z"
       id="path3493"
       inkscape:connector-curvature="0" />
    <path
       style="fill:none;stroke:#000000;stroke-width:0.99999994px;stroke-linecap:butt;stroke-linejoin:miter;stroke-opacity:1"
       d="m 739.74531,469.74209 -22.36515,-10.9501 -11.33579,-4.06724 -9.19117,-7.50861 -2.75732,-9.69871 -14.39951,-17.83308 -5.51467,17.20738 3.98284,7.82151 -9.19118,25.96745 12.2549,11.88869 22.97793,-3.12864 11.33578,18.45877 -31.86275,26.28029 -15.62498,-8.13436 -11.33579,13.45304 -8.57835,-2.50289 -7.65934,6.25723 10.72301,21.90025 -9.49753,12.51437 7.96569,23.46455 -10.72301,12.51445 18.3823,18.77162 3.6765,2.50288 4.28921,-0.31284 67.70822,-108.24976 z"
       id="path3495"
       inkscape:connector-curvature="0" />
    <path
       class="city"
       d="m 432.34897,162.40839 -46.36048,0.88492 5.19929,9.29148 5.6326,6.19432 11.26516,2.21224 12.56501,3.53962 4.33276,4.42454 11.69842,0.44246 5.6326,7.52165 22.53031,-2.6547 4.76608,-22.1226 -22.96363,-0.44245 z"
       title="path3499"
       inkscape:connector-curvature="0" />
    <path
       class="park"
	   title="park_alani4"
       d="m 529.40268,762.37302 42.89431,-39.37826 -154.24609,7.96416 -7.36566,7.5217 5.63255,6.63674 4.76603,2.6547 5.6326,6.1943 1.73306,7.96419 z"
       id="path3501"
       inkscape:connector-curvature="0" />
    <path
       class="park"
	   title="park_alani3"
       d="m 606.09245,695.56277 -71.92369,66.81025 122.61698,-0.44247 z"
       id="path3503"
       inkscape:connector-curvature="0" />
    <path
       class = "park"
       d="m 130.35595,282.75527 -14.73138,-2.21224 -56.759109,15.04335 1.29985,1.32738 1.299793,28.75932 9.5321,3.53962 16.897705,1.76978 26.429811,11.06132 47.66032,2.21224 22.53031,-14.15842 23.83017,0.88486 7.36571,7.52171 -4.76607,14.15842 0,16.37073 2.16638,3.53962 1.29985,21.23773 22.96363,1.32732 2.16638,-6.19432 -6.49913,-8.40657 -5.19935,2.21224 -7.36566,-49.55458 -10.83189,-14.15848 -34.66206,-4.86695 -46.36047,0 -14.73139,-1.76983 -12.565,-3.53958 -4.766026,-2.21229 -0.433265,-2.6547 7.798981,-6.63679 z"
       id="sahilpark1"
	   title = "sahilpark1"
       inkscape:connector-curvature="0" />
  </g>
</svg>
